<svg id="Capa_1" data-name="Capa 1" xmlns="http://www.w3.org/2000/svg" viewBox="0 0 57 36.64"><defs><style>.cls-1{fill:#fff;}</style></defs><path class="cls-1" d="M28.29,36.65C17.18,36.22,8.41,31.33,1.93,22.43c-2.38-3.26-2.74-4.21-.07-8A34,34,0,0,1,13.22,4.13,30.07,30.07,0,0,1,39.33,2,32.94,32.94,0,0,1,55.38,14.53c.32.48.62,1,.92,1.48a4.18,4.18,0,0,1,0,4.69,32.64,32.64,0,0,1-6.92,8.12A34.1,34.1,0,0,1,33.29,36.3,43,43,0,0,1,28.29,36.65Zm.22-4.14a19.93,19.93,0,0,0,8.35-1.24c6.43-2.19,11.37-6.38,15.35-11.8.77-1.06.24-1.91-.36-2.71a32.53,32.53,0,0,0-8.42-8c-.62-.4-1.3-.71-2-1.06.19.74.43,1.47.57,2.22a34.89,34.89,0,0,1,.6,3.66,13.24,13.24,0,0,1-6.53,12.84A14.19,14.19,0,0,1,15,18.45a14.54,14.54,0,0,1,.65-10.18,1.5,1.5,0,0,0,0-.6,1.71,1.71,0,0,0-.47.13,44.74,44.74,0,0,0-5,3.62,49.56,49.56,0,0,0-5,5.56c-1,1.21-.95,1.64.08,2.86a54,54,0,0,0,5.22,5.67C15.52,30,21.37,32.66,28.51,32.51Zm-.25-28c-.93.2-1.75.32-2.54.55-4,1.2-7,5.29-6.7,9.14.06.73.24,1.29,1.11,1.35a1.53,1.53,0,0,0,1.78-1,5.36,5.36,0,0,0,.11-1,6.44,6.44,0,0,1,5.05-5.76c.63-.19,1.31-.18,1.94-.36a1.29,1.29,0,0,0,.48-2.32A5.17,5.17,0,0,0,28.26,4.55Z"/></svg>