<svg id="Capa_1" data-name="Capa 1" xmlns="http://www.w3.org/2000/svg" viewBox="0 0 39.17 55.8"><defs><style>.cls-1{fill:#fff;}</style></defs><path class="cls-1" d="M5.29,31.66c-1.85-5.85,2-8.94,7-8.86-.24-.82-.46-1.59-.69-2.36C10.33,16.3,9,12.17,7.87,8A10.28,10.28,0,0,1,7.64,4.3a4.49,4.49,0,0,1,3.22-4A3.08,3.08,0,0,1,14.51,1a23,23,0,0,1,3.06,4.52c1.6,3.47,3,7.05,4.41,10.59.25.61.47,1.23.86,2.28.68-1.71,1.17-3.07,1.75-4.39C25.94,11,27.28,8,28.75,5A10.46,10.46,0,0,1,30.9,2.25a4,4,0,0,1,6.63,1.28,7.06,7.06,0,0,1,.31,5.13q-1.79,6.23-3.78,12.41c-.69,2.14-.89,2.36,1.19,3.22a5.82,5.82,0,0,1,3.33,4.41c1.75,7.12-.3,17.25-7.27,22.85C23.22,58.05,8.83,57.44,2.37,47a14.61,14.61,0,0,1-2-4.79C-.42,38.19-.37,34.17,5.29,31.66Zm.39,6.89c.64.75,1.17,1.47,1.79,2.09a28.86,28.86,0,0,0,3.09,2.87c.4.3,1.2.06,1.81.07,0-.61.2-1.39-.09-1.8a61.46,61.46,0,0,0-4.43-5.72c-1.12-1.25-2.37-1-3.32.37A5.07,5.07,0,0,0,3.83,41c1.77,5.72,5.49,9.42,11.39,10.72s11.08-.11,15.24-4.59c4-4.3,5.21-9.58,4.92-15.27-.16-3.35-1.17-4.45-4.48-5.46a15.88,15.88,0,0,0-2.42-.61c-3-.41-5.93-.82-8.91-1.06-.71-.06-1.95.37-2.09.83A3.19,3.19,0,0,0,18.06,28a4,4,0,0,0,2.26,1.41c2.35.45,4.75.7,7.13,1a19.44,19.44,0,0,1,3,.15A2.5,2.5,0,0,1,31.86,32c.12.39-.42,1.19-.87,1.51a12.51,12.51,0,0,1-2.49,1.14,12.41,12.41,0,0,0-5.63,4.77,7.14,7.14,0,0,0-1,6.19,21.27,21.27,0,0,1,.71,2.91c.16,1.32-.43,1.72-1.62,1.16-1.76-.83-2.44-2.4-2.84-4.17-.16-.73.12-1.7-1.1-2.11-.27.74-.46,1.44-.76,2.08a4,4,0,0,1-4.51,2.36,9.32,9.32,0,0,1-6.93-6.22A2.61,2.61,0,0,1,5.68,38.55ZM25.8,21.76l2,.58a1.46,1.46,0,0,0,2.08-1.1c1.4-4.35,2.86-8.68,4.27-13a4,4,0,0,0,.29-1.7,2,2,0,0,0-.73-1.41,1.71,1.71,0,0,0-1.47.47,5.34,5.34,0,0,0-1.21,1.86C29.31,12.1,27.62,16.78,25.8,21.76Zm-6.15-.82c-1.83-5-3.53-9.86-5.36-14.64-.42-1.1-.81-2.53-2.34-2.59-.9,0-1.26,1.6-.63,3.79,1,3.58,2.17,7.13,3.36,10.66C15.7,21.21,15.75,21.19,19.65,20.94Zm-1.75,17a6.54,6.54,0,0,0-.33-1.16c-1.23-2.53-2.43-5.09-3.77-7.56a5.17,5.17,0,0,0-1.89-1.94,2.65,2.65,0,0,0-2-.15,1.91,1.91,0,0,0-1.27,2.2,5.84,5.84,0,0,0,.47,1.41,27.31,27.31,0,0,0,5.6,7.59,5,5,0,0,0,1.45.95C17.14,39.65,17.94,39,17.9,37.89Zm2.84-4.49-.46.42,1,1.49L23,33.94Z"/></svg>