<svg id="Capa_1" data-name="Capa 1" xmlns="http://www.w3.org/2000/svg" viewBox="0 0 40.93 48.61"><defs><style>.cls-1{fill:#fff;}</style></defs><path class="cls-1" d="M40.91,4.57A20,20,0,0,1,40,7.89c-2.87,6-5.77,12-8.78,17.93a14.25,14.25,0,0,1-2.86,3.75A6,6,0,0,1,19.3,29a9.06,9.06,0,0,1,0-11.91C24,11.84,28.87,6.7,33.75,1.57c2-2.15,4.7-2.08,6.19.13A11.31,11.31,0,0,1,40.91,4.57Z"/><path class="cls-1" d="M.13,33.31c1,.79,1.74,1.4,2.5,2,2.08,1.59,2.59,1.46,3.59-.89.23-.53.47-1.06.73-1.59,1.65-3.43,4.65-4.55,8.17-4.66a1.9,1.9,0,0,1,1.36.8,11.78,11.78,0,0,0,4.59,4.46A2.15,2.15,0,0,1,21.93,35a16.09,16.09,0,0,1-1.38,7.53c-1.88,3.82-4.9,6.06-9.24,6.1a9.6,9.6,0,0,1-9.51-6A16.44,16.44,0,0,1,.13,33.31Z"/></svg>